<?xml version="1.0" standalone="no"?>
<!DOCTYPE svg PUBLIC "-//W3C//DTD SVG 20010904//EN"
 "http://www.w3.org/TR/2001/REC-SVG-20010904/DTD/svg10.dtd">
<svg version="1.0" xmlns="http://www.w3.org/2000/svg"
 width="200.000000pt" height="200.000000pt" viewBox="0 0 200.000000 200.000000"
 preserveAspectRatio="xMidYMid meet">
<metadata>
Created by potrace 1.14, written by Peter Selinger 2001-2017
</metadata>
<g transform="translate(0.000000,200.000000) scale(0.100000,-0.100000)"
fill="#000000" stroke="none">
<path d="M0 1000 l0 -1000 1000 0 1000 0 0 1000 0 1000 -1000 0 -1000 0 0
-1000z m818 713 c17 -15 105 -261 107 -298 0 -5 -16 -12 -35 -16 -45 -7 -95
-33 -113 -59 -13 -18 -14 -17 -35 24 -11 25 -46 88 -76 140 -31 53 -56 102
-56 109 0 27 35 60 94 88 71 34 86 35 114 12z m622 -358 c0 -46 -20 -81 -75
-128 -44 -38 -43 -58 6 -85 117 -64 104 -112 -49 -185 l-73 -35 33 -10 c18 -5
51 -15 74 -21 50 -13 86 -48 64 -61 -24 -15 -118 -23 -204 -17 -89 6 -116 13
-116 31 0 7 -18 54 -40 105 -22 50 -40 101 -40 112 0 10 -7 19 -15 19 -20 0
-20 -3 14 -74 16 -33 39 -86 51 -115 l21 -55 -51 48 c-28 26 -65 53 -83 61
-30 12 -35 21 -70 134 -20 66 -37 126 -37 132 0 7 8 22 17 33 18 21 18 21 -4
2 -13 -11 -23 -25 -23 -33 0 -34 -54 15 -65 60 -10 37 13 70 68 96 65 31 97
28 125 -14 23 -36 30 -85 11 -85 -6 0 18 -53 52 -117 59 -112 63 -123 69 -206
4 -56 11 -91 19 -96 20 -13 180 -21 226 -13 36 7 38 9 20 19 -11 5 -42 16 -70
22 -66 16 -100 38 -86 55 6 8 44 26 85 40 115 42 144 90 78 131 -44 28 -82 68
-82 85 0 8 25 40 56 70 61 60 88 109 79 143 -5 17 -4 19 4 7 6 -8 11 -33 11
-55z m-1035 -728 c16 -12 16 -18 7 -47 -17 -47 -15 -50 18 -33 28 13 33 13 55
-1 29 -19 31 -41 11 -108 -11 -35 -12 -48 -3 -52 16 -6 -29 -46 -52 -46 -10 0
-25 6 -36 14 -18 13 -18 22 1 110 5 21 3 27 -6 24 -17 -5 -38 -63 -39 -105
l-1 -33 -60 0 c-33 0 -60 4 -60 10 0 6 4 10 8 10 13 0 73 216 66 234 -11 29
59 46 91 23z m269 -9 c16 -26 -26 -68 -52 -52 -22 14 -27 41 -11 60 15 19 49
14 63 -8z m-39 -71 c21 -16 19 -35 -21 -165 -23 -76 -28 -85 -59 -98 -41 -17
-71 -18 -80 -3 -4 6 0 16 9 22 21 16 69 183 62 213 -5 20 -1 25 26 33 45 13
42 13 63 -2z m443 -23 c68 -76 -41 -204 -150 -176 -99 25 -81 158 27 197 50
18 94 11 123 -21z m122 26 c24 0 30 -41 14 -96 -9 -30 -13 -58 -10 -61 9 -10
34 5 51 31 15 23 15 26 0 50 -33 50 15 106 56 65 55 -55 -39 -194 -132 -194
-56 0 -73 20 -64 75 4 25 8 63 9 84 2 40 24 60 54 50 8 -2 18 -4 22 -4z m298
-1 c17 -6 34 -19 37 -30 15 -46 -21 -79 -86 -79 -20 0 -29 -5 -29 -16 0 -13 9
-15 45 -12 51 4 58 -9 23 -42 -33 -30 -101 -28 -135 6 -22 22 -25 32 -20 71 9
85 83 131 165 102z m200 0 c40 22 83 -44 50 -77 -19 -19 -44 -14 -61 11 l-15
22 -12 -30 c-7 -16 -13 -51 -14 -77 l-1 -48 -62 0 c-57 0 -78 10 -54 25 16 9
43 116 37 141 -5 20 -1 25 26 32 19 5 44 5 60 0 17 -6 34 -6 46 1z m-873 -49
c14 -23 -17 -40 -71 -40 -55 0 -68 8 -58 34 5 12 20 16 64 16 33 0 62 -5 65
-10z"/>
<path d="M928 1273 c6 -2 18 -2 25 0 6 3 1 5 -13 5 -14 0 -19 -2 -12 -5z"/>
<path d="M975 488 c-21 -51 -29 -108 -16 -108 14 0 36 50 46 103 9 47 -10 50
-30 5z"/>
<path d="M1431 502 c-14 -26 -7 -42 10 -25 6 6 9 19 7 29 -3 17 -5 17 -17 -4z"/>
</g>
</svg>
