
        <svg xmlns="http://www.w3.org/2000/svg" xmlns:xlink="http://www.w3.org/1999/xlink" version="1.1" width="3187.5" height="1094.526296625973" viewBox="0 0 3187.5 1094.526296625973">
			
			<g transform="scale(9.375) translate(10, 10)">
				<defs id="SvgjsDefs4016"/><g id="SvgjsG4017" featureKey="symbolFeature-0" transform="matrix(1.1679923821004667,0,0,1.1679923821004667,-8.399034315746643,-10.0248788294341)" fill="#000"><g xmlns="http://www.w3.org/2000/svg"><path d="M21.809,62.182h57.667c1.711-2.785,3.934-4.177,6.371-4.177h4.177c1.536,0,2.784-1.248,2.784-2.784   s-1.248-2.784-2.784-2.784H20.417c-0.096,0-0.188-0.329-0.282-0.318c-0.138-0.006-0.622-0.204-0.762-0.204   c-6.535,0-12.182,5.655-12.182,12.842v12.948c0,7.189,5.647,13.018,12.182,13.018c0.141,0,0.45,0.325,0.588,0.319   c0.094,0.008,0.36,0.375,0.456,0.375h69.607c1.536,0,2.784-1.248,2.784-2.784s-1.248-2.784-2.784-2.784h-4.177   c-2.438,0-4.663-2.784-6.371-4.177H21.809c-0.77,0-1.392-0.622-1.392-1.392s0.622-1.393,1.392-1.393h56.053   c-0.432-1.392-0.787-2.784-1.07-2.784H19.025c-0.771,0-1.392-0.622-1.392-1.392s0.622-1.393,1.392-1.393h57.173   c-0.058-1.393-0.096-0.949-0.096-1.393c0-0.442,0.038-1.392,0.096-1.392H19.025c-0.771,0-1.392-0.623-1.392-1.393   s0.622-1.392,1.392-1.392h57.767c0.281-1.393,0.639-2.784,1.07-2.784H21.809c-0.77,0-1.392-0.623-1.392-1.393   S21.039,62.182,21.809,62.182z"/><path d="M80.627,8.583c-0.142,0-0.102,0.372-0.24,0.377c-0.094-0.01-0.013,0.319-0.107,0.319H10.672   c-1.537,0-2.784,1.247-2.784,2.784s1.247,2.784,2.784,2.784h4.176c2.438,0,4.663,1.392,6.371,4.177h57.667   c0.77,0,1.393,0.622,1.393,1.392c0,0.77-0.623,1.392-1.393,1.392H22.833c0.432,0,0.788,1.392,1.071,2.784h57.767   c0.77,0,1.393,0.622,1.393,1.392c0,0.771-0.623,1.392-1.393,1.392H24.498c0.057,0,0.096,0.95,0.096,1.392   c0,0.443-0.039,0-0.096,1.393h57.173c0.77,0,1.393,0.622,1.393,1.392c0,0.77-0.623,1.392-1.393,1.392H23.904   c-0.281,0-0.639,1.392-1.071,2.784h56.053c0.77,0,1.393,0.622,1.393,1.392s-0.623,1.392-1.393,1.392H21.219   c-1.71,1.392-3.933,4.177-6.371,4.177h-4.176c-1.537,0-2.784,1.247-2.784,2.784c0,1.537,1.247,2.784,2.784,2.784h69.607   c0.095,0,0.188-0.368,0.281-0.377c0.139,0.006-0.075-0.145,0.066-0.145c6.534,0,11.485-6.003,11.485-13.191V21.601   C92.112,14.413,87.161,8.583,80.627,8.583z"/></g></g><g id="SvgjsG4018" featureKey="nameFeature-0" transform="matrix(1.431024669868727,0,0,1.431024669868727,117.65311768538048,6.171149554808217)" fill="#000"><path d="M24.12 40 l-8.24 0 l0 -11.84 c0 -0.6 -0.04 -0.72 -0.12 -1.08 c-0.16 -0.8 -0.8 -1.88 -2.84 -1.88 c-0.64 0 -2.44 0.08 -2.92 1.92 c-0.12 0.4 -0.12 0.84 -0.12 1.2 l0 11.68 l-8.24 0 l0 -28.24 l8.2 0 l0 9.6 c0.44 -0.56 0.64 -0.76 0.92 -1.04 c0.8 -0.76 2.68 -1.92 5.68 -1.92 c2 0 4.28 0.6 5.76 2.08 c0.52 0.52 1.36 1.56 1.68 3.32 c0.2 1 0.24 1.68 0.24 2.68 l0 13.52 z M35.8 17.24 l-8.24 0 l0 -5.48 l8.24 0 l0 5.48 z M35.8 39.68 c0 0.96 0 1.92 -0.08 2.84 c-0.08 0.6 -0.2 2.36 -1.68 3.56 c-2.28 1.88 -7.16 1.68 -7.32 1.68 c-0.76 0 -1.52 -0.04 -2.28 -0.04 l0.04 -6 c0.16 0 0.72 0.04 1.32 -0.04 c1.76 -0.28 1.76 -1.52 1.76 -2.2 l0 -20.2 l8.24 0 l0 20.4 z M51.279999999999994 30.8 l-12.6 0 l0 -6.84 l12.6 0 l0 6.84 z M77.44 29.68 c0 1.12 -0.2 4.68 -2.68 7.44 c-1.44 1.6 -4.52 3.68 -9.68 3.68 c-1.2 0 -4.92 -0.04 -7.96 -2.44 c-1.52 -1.2 -3.84 -3.84 -3.84 -8.56 c0 -2.88 0.88 -5.72 2.84 -7.84 c1.4 -1.52 4.36 -3.6 9.4 -3.56 c1.08 0 5.36 0.12 8.44 2.8 c2.32 2.04 3.48 5.4 3.48 8.48 z M69.12 29.48 c0 -3.12 -1 -4.56 -2.48 -5.08 c-0.6 -0.2 -1.12 -0.2 -1.36 -0.2 c-1.44 0.04 -2.24 0.76 -2.6 1.16 c-0.64 0.68 -1.2 2.08 -1.2 4.2 c0 2.04 0.52 3.44 1.04 4.16 c0.32 0.44 0.76 0.8 1.24 1 c0.24 0.12 0.84 0.28 1.56 0.28 c0.96 0 1.84 -0.28 2.48 -0.92 c0.72 -0.72 1.32 -2.28 1.32 -4.6 z M100.75999999999999 19.28 l-6.88 20.72 l-8.76 0 l-6.92 -20.72 l8.72 0 l2.52 12.8 l2.68 -12.8 l8.64 0 z M124.32 31.119999999999997 l-14.44 0 s0 0.96 0.2 1.6 c0.28 0.8 1.08 2.32 3.28 2.28 c1.28 0 1.96 -0.44 2.36 -0.8 c0.84 -0.68 1.24 -1.6 1.4 -1.88 l6.76 2.84 c-0.2 0.32 -0.44 0.76 -1 1.4 c-1.44 1.68 -3.08 2.6 -3.8 2.96 c-1 0.48 -3.16 1.32 -6.12 1.32 c-1.72 0 -3.36 -0.24 -4.92 -0.88 c-4.28 -1.76 -6.56 -5.92 -6.56 -10.44 c0 -4.28 1.96 -6.92 3.16 -8.08 c2.96 -2.84 7.08 -3.04 8.24 -3.04 c1.4 0 5.64 0.2 8.64 3.44 c1 1.08 1.76 2.44 2.2 3.84 c0.56 1.8 0.6 3.56 0.6 5.44 z M115.96 26.759999999999998 c-0.04 -0.24 -0.04 -0.64 -0.2 -1.16 c-0.56 -1.72 -2.08 -1.96 -2.72 -1.96 c-0.64 0.04 -1.04 0.2 -1.28 0.32 c-1.52 0.68 -1.72 2.36 -1.8 2.8 l6 0 z M141.4 25.8 c-0.4 -0.04 -0.8 -0.08 -1.2 -0.08 c-0.64 -0.04 -4.16 -0.24 -5.16 2.56 c-0.24 0.68 -0.24 1.24 -0.24 1.96 l0 9.76 l-8.2 0 l0 -20.72 l7.92 0 l0 1.8 c0.4 -0.36 0.68 -0.6 1.12 -0.88 c1.84 -1.28 3.6 -1.36 5.76 -1.36 l0 6.96 z"/></g>
			</g>
		</svg>
	